<?xml version="1.0" standalone="no"?>
<!DOCTYPE svg PUBLIC "-//W3C//DTD SVG 1.1//EN" "http://www.w3.org/Graphics/SVG/1.1/DTD/svg11.dtd" >
<svg xmlns="http://www.w3.org/2000/svg" xmlns:xlink="http://www.w3.org/1999/xlink" version="1.1">
<metadata></metadata>
<defs>
<font id="ar_destineregular" horiz-adv-x="1096" >
<font-face units-per-em="2048" ascent="1638" descent="-410" />
<missing-glyph horiz-adv-x="1162" />
<glyph horiz-adv-x="0" />
<glyph horiz-adv-x="682" />
<glyph unicode=" "  horiz-adv-x="1162" />
<glyph unicode="&#x09;" horiz-adv-x="1162" />
<glyph unicode="&#xa0;" horiz-adv-x="1162" />
<glyph unicode="!" horiz-adv-x="452" d="M64 0v322h324v-322h-324zM64 388v902h324v-902h-324z" />
<glyph unicode="&#x22;" horiz-adv-x="710" d="M64 1354h258l-64 -322h-128zM388 1354h258l-66 -322h-128z" />
<glyph unicode="#" horiz-adv-x="1536" d="M64 226l72 322h194l38 194h-194l72 322h192l62 290h322l-60 -290h194l60 290h322l-60 -290h194l-72 -322h-194l-38 -194h194l-72 -322h-192l-62 -290h-322l60 290h-194l-60 -290h-322l60 290h-194zM652 548h194l38 194h-194z" />
<glyph unicode="$" horiz-adv-x="1226" d="M64 322h664l-548 582h442l448 -484q66 -70 79 -112t13 -146q0 -102 -90 -144q-68 -32 -200 -32q-62 0 -150 7t-90 7l-30 -130h-328l28 130h-22zM128 968v162q0 98 82 138q62 30 182 30q36 0 82 -3t100 -5l28 130h334l-30 -130h38l218 -322h-1034z" />
<glyph unicode="%" horiz-adv-x="1248" d="M64 844v286h196v-188h118v188h196v-286q0 -42 -30 -71t-68 -29h-314q-42 0 -70 29t-28 71zM64 1170v98q0 42 27 70t71 28h314q44 0 71 -27t27 -71v-98h-510zM176 -378l696 1860h200l-696 -1860h-200zM674 94h196v-188h118v188h196v-286q0 -40 -28 -69t-72 -29h-312 q-38 0 -68 29t-30 69v286zM674 134v98q0 42 28 69t70 27h312q46 0 73 -27t27 -69v-98h-510z" />
<glyph unicode="&#x26;" horiz-adv-x="1592" d="M64 162v96q0 72 148 236q160 162 178 180l-216 230h442l212 -230l-332 -352h614v130h-34l-216 322h668v-322h-96q0 -18 4 -84t4 -106q0 -116 -30 -178q-42 -84 -140 -84h-1044q-68 0 -115 47t-47 115zM76 968v162q0 68 46 114t116 46h656l216 -322h-1034z" />
<glyph unicode="'" horiz-adv-x="452" d="M64 1354h324l-66 -322h-192z" />
<glyph unicode="(" horiz-adv-x="668" d="M64 -274v1178h324v-1016h216l-216 -324h-162q-66 0 -114 48t-48 114zM64 968v354q0 66 48 114t114 48h162l216 -322h-216v-194h-324z" />
<glyph unicode=")" horiz-adv-x="668" d="M64 -112h216v1016h324v-1178q0 -66 -48 -114t-114 -48h-162zM64 1162l216 322h162q66 0 114 -48t48 -114v-354h-324v194h-216z" />
<glyph unicode="*" horiz-adv-x="580" d="M64 974v162h84l-42 74l140 80l42 -74l44 74l138 -80l-44 -74h90v-162h-86l40 -74l-138 -80l-44 76l-42 -76l-140 80l42 74h-84z" />
<glyph unicode="+" horiz-adv-x="1226" d="M64 484v322h388v388h322v-388h388v-322h-388v-388h-322v388h-388z" />
<glyph unicode="," horiz-adv-x="452" d="M64 0v322h324v-322l-324 -322v64l66 258h-66z" />
<glyph unicode="-" horiz-adv-x="1064" d="M64 484v322h936v-322h-936z" />
<glyph unicode="." horiz-adv-x="452" d="M64 0v322h324v-322h-324z" />
<glyph unicode="/" horiz-adv-x="886" d="M96 -368l394 1852h332l-396 -1852h-330z" />
<glyph unicode="0" d="M64 162v742h462l184 -198v198h322v-742q0 -66 -48 -114t-112 -48h-646q-66 0 -114 48t-48 114zM64 968v162q0 64 48 112t114 48h646q66 0 113 -47t47 -113v-162h-968zM388 322h244l-244 262v-262z" />
<glyph unicode="1" horiz-adv-x="670" d="M44 968l216 322h184q70 0 116 -48t46 -116v-158h-562zM282 0v904h324v-904h-324z" />
<glyph unicode="2" horiz-adv-x="1226" d="M64 0l606 904h388l-390 -582h494l-218 -322h-880zM64 968l216 322h656q68 0 114 -46t46 -114v-162h-1032z" />
<glyph unicode="3" horiz-adv-x="1164" d="M2 322h664l-332 352l214 230h442l-216 -230q114 -122 230 -244q96 -118 96 -172v-96q0 -66 -48 -114t-114 -48h-720zM54 968l216 322h654q70 0 116 -46t46 -114v-162h-1032z" />
<glyph unicode="4" horiz-adv-x="1116" d="M22 462q0 56 42 150t138 220q96 128 169 217t139 143t134 78t154 24q48 0 94 -21t82 -57t57 -82t19 -96v-458h-324v338q-22 -34 -69 -88t-99 -113t-99 -114t-67 -87h658v-516h-324v194h-90t-97 -1t-82 -1h-45q-88 0 -160 11t-123 40t-79 82t-28 137z" />
<glyph unicode="5" horiz-adv-x="1164" d="M64 322h712v194h-486q-66 0 -114 48t-48 114v226h324v-66h486q66 0 114 -46t48 -114v-516q0 -66 -48 -114t-114 -48h-658zM128 968v322h754l218 -322h-972z" />
<glyph unicode="6" horiz-adv-x="1102" d="M64 162v742h324v-66h490q66 0 113 -47t47 -113v-516q0 -66 -46 -114t-114 -48h-652q-66 0 -114 48t-48 114zM64 968v162q0 64 48 112t114 48h596l216 -322h-974zM388 322h328v194h-328v-194z" />
<glyph unicode="7" horiz-adv-x="1058" d="M2 0l606 904h388l-606 -904h-388zM2 968l216 322h656q68 0 114 -46t46 -114v-162h-1032z" />
<glyph unicode="8" horiz-adv-x="1160" d="M64 162v516q0 80 66 128v98h322v-66h258v130h-580v162q0 42 57 101t103 59h580q76 0 116 -64q52 -82 52 -264q0 -52 -2 -88t-4 -68q64 -46 64 -128v-516q0 -58 -50 -110t-110 -52h-710q-60 0 -111 51t-51 111zM388 322h386v194h-386v-194z" />
<glyph unicode="9" horiz-adv-x="1162" d="M64 322h710v130h-484q-66 0 -114 48t-48 112v292h324v-130h322v194h-646v162q0 64 48 112t114 48h646q66 0 114 -48t48 -112v-968q0 -66 -48 -114t-114 -48h-656z" />
<glyph unicode=":" horiz-adv-x="516" d="M96 0v322h324v-322h-324zM96 646v322h324v-322h-324z" />
<glyph unicode=";" horiz-adv-x="516" d="M96 0v322h324v-322l-324 -322v64l66 258h-66zM96 646v322h324v-322h-324z" />
<glyph unicode="&#x3c;" horiz-adv-x="1032" d="M64 484v322l904 478v-372l-506 -266l506 -272v-370z" />
<glyph unicode="=" horiz-adv-x="1328" d="M80 274v346h1168v-346h-1168zM80 754v346h1168v-346h-1168z" />
<glyph unicode="&#x3e;" horiz-adv-x="1032" d="M64 4v370l506 272l-506 266v372l904 -478v-322z" />
<glyph unicode="?" horiz-adv-x="1160" d="M64 838v66h324v-66h-324zM64 968v162q0 64 48 112t114 48h710q64 0 112 -48t48 -112v-518q0 -98 -86 -136q-58 -26 -174 -26h-49t-45 2v-64h-322v224q0 98 76 136q56 28 162 28q30 0 59 -1t57 -1v194h-710zM420 0v322h322v-322h-322z" />
<glyph unicode="@" horiz-adv-x="2146" d="M64 472q0 212 77 399t215 326t329 220t419 81q230 0 411 -73t307 -207t193 -322t67 -416q0 -148 -51 -311t-145 -300t-226 -226t-296 -89q-90 0 -140 41t-74 105t-28 141t-4 151q-58 -2 -144 -4t-162 2q-40 0 -81 5t-73 19t-52 41t-20 73q0 70 18 163t44 193t56 198 t56 178q18 58 67 100t105 42h324l54 -138q6 26 13 44t13 33t11 29t9 32h264q-18 -44 -41 -117t-48 -164t-51 -193t-47 -202t-36 -191t-21 -160t1 -111t29 -42q50 -2 119 49t131 139t104 207t40 255q-4 164 -47 304t-129 243t-215 161t-305 58q-158 0 -299 -60t-247 -163 t-168 -243t-62 -300q0 -136 43 -253t121 -209t185 -155t235 -93q6 -2 6 -22t-4 -49t-11 -61t-15 -60t-16 -45t-14 -15q-168 42 -314 129t-252 212t-167 282t-61 339zM898 292h260l26 104t29 112t29 111t26 101h-260q-22 -98 -54 -209t-56 -219z" />
<glyph unicode="A" horiz-adv-x="1290" d="M2 0l758 1170q78 120 214 120q102 0 177 -75t75 -177v-458h-324v216l-184 -280h508v-516h-324v194h-390l-126 -194h-384z" />
<glyph unicode="B" horiz-adv-x="1262" d="M64 0v904h324v-66h322v130h-646v322h806q98 0 142 -126q32 -94 32 -258q0 -80 -4 -128t-8 -108q64 -94 130 -186q80 -126 80 -216q0 -112 -78 -190t-190 -78h-910zM388 322h482l-124 194h-358v-194z" />
<glyph unicode="C" d="M64 162v742h324v-582h708l-216 -322h-654q-66 0 -114 48t-48 114zM64 968v162q0 64 48 112t114 48h654l216 -322h-1032z" />
<glyph unicode="D" horiz-adv-x="1262" d="M64 0v904h322v-582h484l-420 646h-386v322h432q136 0 212 -120q90 -130 182 -258q142 -202 234 -360q118 -202 118 -284q0 -108 -80 -188t-188 -80h-910z" />
<glyph unicode="E" horiz-adv-x="1160" d="M64 0v1290h816l216 -322h-708v-646h708l-216 -322h-816zM452 484v322h452l-216 -322h-236z" />
<glyph unicode="F" d="M64 0v1290h816l216 -322h-708v-968h-324zM452 484v322h452l-216 -322h-236z" />
<glyph unicode="G" horiz-adv-x="1160" d="M64 162v742h324v-582h386v162h-106l-216 322h644v-644q0 -66 -46 -114t-114 -48h-710q-66 0 -114 48t-48 114zM64 968v162q0 64 48 112t114 48h654l216 -322h-1032z" />
<glyph unicode="H" horiz-adv-x="1160" d="M64 0v1290h324v-1290h-324zM452 484v322h322v484h322v-1290h-322v484h-322z" />
<glyph unicode="I" horiz-adv-x="516" d="M96 0v1290h324v-1290h-324z" />
<glyph unicode="J" horiz-adv-x="1160" d="M64 162v290h322v-130h388v968h322v-1128q0 -66 -48 -114t-114 -48h-710q-64 0 -112 48t-48 114z" />
<glyph unicode="K" horiz-adv-x="1212" d="M64 0v1290h324v-1290h-324zM452 580v320l252 390h384l-356 -548l480 -742h-382z" />
<glyph unicode="L" horiz-adv-x="1098" d="M64 0v1290h322v-1290h-322zM450 0v322h646l-216 -322h-430z" />
<glyph unicode="M" horiz-adv-x="1676" d="M64 0v1038q0 104 74 178t178 74q178 0 376 -336q72 -130 146 -260q62 112 126 224q96 168 174 252q112 120 222 120q104 0 178 -74t74 -178v-1038h-322v796q-76 -138 -124 -224q-168 -294 -328 -294q-158 0 -326 292q-64 112 -126 226v-796h-322z" />
<glyph unicode="N" horiz-adv-x="1354" d="M64 0v1038q0 104 74 178t178 74q136 0 212 -120l438 -676v796h324v-1038q0 -104 -74 -178t-178 -74q-136 0 -214 120l-438 676v-796h-322z" />
<glyph unicode="O" horiz-adv-x="1160" d="M64 162v742h324v-582h386v582h322v-742q0 -66 -46 -114t-114 -48h-710q-66 0 -114 48t-48 114zM64 968v162q0 64 48 112t114 48h710q66 0 113 -47t47 -113v-162h-1032z" />
<glyph unicode="P" horiz-adv-x="1160" d="M64 0v904h324v-194h386v258h-710v322h872q48 0 104 -56t56 -104v-582q0 -60 -50 -110t-110 -50h-548v-388h-324z" />
<glyph unicode="Q" horiz-adv-x="1228" d="M64 162v742h324v-582h386v582h322v-742q0 -60 -34 -100l164 -256h-384l-126 194h-490q-66 0 -114 48t-48 114zM64 968v162q0 64 48 112t114 48h710q66 0 113 -47t47 -113v-162h-1032z" />
<glyph unicode="R" horiz-adv-x="1188" d="M64 0v904h322v-194h388v258h-710v322h872q48 0 104 -56t56 -104v-582q0 -60 -50 -110t-110 -50l250 -388h-382l-252 388h-166v-388h-322z" />
<glyph unicode="S" horiz-adv-x="1172" d="M44 322h664l-548 582h442q188 -196 376 -390q162 -188 162 -256v-96q0 -66 -48 -114t-112 -48h-720zM108 968v162q0 66 47 113t115 47h654l216 -322h-1032z" />
<glyph unicode="T" horiz-adv-x="1226" d="M64 968v322h644v-1290h-322v968h-322zM772 968v322h452l-216 -322h-236z" />
<glyph unicode="U" horiz-adv-x="1160" d="M64 162v1128h324v-968h386v968h322v-1290h-870q-66 0 -114 48t-48 114z" />
<glyph unicode="V" horiz-adv-x="1288" d="M64 252v1038h322v-796l518 796h382l-758 -1170q-76 -120 -212 -120q-102 0 -177 75t-75 177z" />
<glyph unicode="W" horiz-adv-x="1678" d="M64 252v1038h324v-796q88 154 178 310q138 208 274 208q158 0 324 -292q62 -114 126 -226v796h324v-1038q0 -104 -74 -178t-178 -74q-110 0 -220 118q-84 90 -176 252q-64 112 -126 226l-128 -224q-96 -170 -174 -252q-112 -120 -222 -120q-102 0 -177 75t-75 177z" />
<glyph unicode="X" horiz-adv-x="1314" d="M44 1290h384l230 -352l228 352h384l-418 -648l416 -642h-388l-222 346l-224 -346h-386l420 642z" />
<glyph unicode="Y" horiz-adv-x="1340" d="M4 1290h384l284 -438l284 438h384l-506 -784v-506h-322v506z" />
<glyph unicode="Z" horiz-adv-x="1126" d="M14 156v160l594 646h-594l216 322h656q66 0 113 -47t47 -113v-162l-594 -646h660l-218 -322h-718q-66 0 -114 48t-48 114z" />
<glyph unicode="[" horiz-adv-x="668" d="M64 -388v1872h324l216 -322h-216v-1226h216l-216 -324h-324z" />
<glyph unicode="\" horiz-adv-x="758" d="M0 1484h332l398 -1872h-328z" />
<glyph unicode="]" horiz-adv-x="668" d="M64 -64h216v1226h-216l216 322h324v-1872h-324z" />
<glyph unicode="^" horiz-adv-x="786" d="M67 682q-3 6 1 12l314 592q4 8 10 8t10 -8l316 -592q4 -6 1 -12t-11 -6h-182q-8 0 -10 6l-124 232q-28 -54 -60 -115t-60 -117q-4 -6 -10 -6h-184q-8 0 -11 6z" />
<glyph unicode="_" horiz-adv-x="1360" d="M0 -64h1360v-324h-1360v324z" />
<glyph unicode="`" horiz-adv-x="516" d="M64 1472h322l66 -322h-194z" />
<glyph unicode="a" d="M64 162v386q0 66 48 114t114 48h204l216 -322h-258v-66h322v388h322v-710h-806q-66 0 -114 48t-48 114zM64 774l216 322h590q68 0 115 -47t47 -113v-162h-968z" />
<glyph unicode="b" d="M64 0v710h324v-388h322v388h322v-548q0 -66 -48 -114t-114 -48h-806zM64 774v710h324v-388h482q66 0 114 -46t48 -114v-162h-968z" />
<glyph unicode="c" horiz-adv-x="1032" d="M64 162v548h324v-388h644l-216 -322h-590q-66 0 -114 48t-48 114zM64 774v162q0 64 48 112t114 48h590l216 -322h-968z" />
<glyph unicode="d" d="M64 162v548h324v-388h322v388h322v-710h-806q-66 0 -114 48t-48 114zM64 774v162q0 64 48 112t114 48h484v388h322v-710h-968z" />
<glyph unicode="e" horiz-adv-x="1162" d="M64 162v774q0 64 48 112t114 48h646q66 0 113 -47t47 -113v-162h-644v-452h710l-216 -322h-656q-66 0 -114 48t-48 114zM452 710h580v-162q0 -66 -47 -113t-113 -47h-204z" />
<glyph unicode="f" horiz-adv-x="836" d="M14 774v322h774l-216 -322h-106v-774h-322v774h-130zM144 1162v160q0 66 46 114t114 48h398l216 -322h-774z" />
<glyph unicode="g" horiz-adv-x="1098" d="M2 -130h710v130h-484q-66 0 -114 48t-48 114v548h324v-388h322v452h-646v162q0 64 48 112t114 48h806v-1386q0 -66 -48 -114t-114 -48h-654z" />
<glyph unicode="h" d="M64 0v710h324v-710h-324zM64 774v710h324v-388h482q66 0 114 -46t48 -114v-936h-322v774h-646z" />
<glyph unicode="i" horiz-adv-x="516" d="M96 0v1096h324v-1096h-324zM96 1226v258h324v-258h-324z" />
<glyph unicode="j" horiz-adv-x="696" d="M-78 -130h388v1226h322v-1386q0 -64 -49 -113t-111 -49h-332zM310 1226v258h322v-258h-322z" />
<glyph unicode="k" horiz-adv-x="1132" d="M64 0v1290h324v-1290h-324zM452 452v318l210 326h384l-314 -484l398 -612h-384z" />
<glyph unicode="l" horiz-adv-x="516" d="M96 0v1484h324v-1484h-324z" />
<glyph unicode="m" horiz-adv-x="1354" d="M64 0v710h324v-710h-324zM64 774v322h1066q66 0 113 -47t47 -113v-936h-322v774h-904zM516 0v710h322v-710h-322z" />
<glyph unicode="n" d="M64 0v710h324v-710h-324zM64 774v322h806q66 0 114 -46t48 -114v-936h-322v774h-646z" />
<glyph unicode="o" d="M64 162v548h324v-388h322v388h322v-548q0 -66 -48 -114t-114 -48h-644q-66 0 -114 48t-48 114zM64 774v162q0 64 48 112t114 48h644q68 0 115 -47t47 -113v-162h-968z" />
<glyph unicode="p" d="M64 -452v1162h324v-388h322v452h-646v322h806q50 0 106 -56t56 -104v-774q0 -60 -51 -111t-111 -51h-482v-452h-324z" />
<glyph unicode="q" d="M64 162v548h324v-388h322v452h-646v162q0 46 57 103t105 57h806v-1548h-322v452h-484q-58 0 -110 52t-52 110z" />
<glyph unicode="r" horiz-adv-x="956" d="M64 0v1096h324v-1096h-324zM452 774v322h364l216 -322h-580z" />
<glyph unicode="s" horiz-adv-x="1140" d="M64 322h552l-416 388h464q156 -134 312 -266q120 -120 120 -186v-96q0 -60 -51 -111t-109 -51h-656zM128 774v162q0 64 48 112t114 48h590l216 -322h-968z" />
<glyph unicode="t" horiz-adv-x="840" d="M64 774v322h130v388l322 -216v-1268h-322v774h-130zM580 774v322h42l216 -322h-258z" />
<glyph unicode="u" d="M64 162v934h324v-774h322v774h322v-1096h-806q-66 0 -114 48t-48 114z" />
<glyph unicode="v" horiz-adv-x="1042" d="M2 1096h334l178 -622l194 622h332l-284 -942q-24 -78 -92 -131t-150 -53q-86 0 -152 50t-90 134z" />
<glyph unicode="w" horiz-adv-x="1354" d="M64 162v934h324v-774h128v774h322v-774h130v774h322v-1096h-1064q-66 0 -114 48t-48 114z" />
<glyph unicode="x" horiz-adv-x="1184" d="M44 0l358 548l-358 548h384l164 -250l160 250h388l-354 -548l354 -548h-388l-160 252l-162 -252h-386z" />
<glyph unicode="y" horiz-adv-x="1044" d="M2 1096h336l178 -622l192 622h334l-468 -1548h-340l146 462q-82 54 -106 144z" />
<glyph unicode="z" horiz-adv-x="1068" d="M28 162v160l488 452h-488l216 322h590q66 0 114 -46t48 -114v-162l-496 -452h560l-216 -322h-654q-68 0 -115 47t-47 115z" />
<glyph unicode="{" horiz-adv-x="938" d="M64 484l226 838q18 66 76 114t128 48h164l216 -322h-304l-182 -678l182 -678h300l-216 -322h-160q-66 0 -126 48t-78 114z" />
<glyph unicode="|" horiz-adv-x="452" d="M64 -388v1872h324v-1872h-324z" />
<glyph unicode="}" horiz-adv-x="938" d="M64 1162l216 322h166q66 0 125 -47t77 -115l226 -838l-226 -838q-16 -66 -75 -114t-127 -48h-162l-216 322h300l184 678l-184 678h-304z" />
<glyph unicode="~" d="M64 424v220q0 4 6 10q34 28 64 51t50 37q82 46 152 46q80 0 228 -60h-4q134 -52 212 -52q54 0 124 36q22 10 49 28t61 42q8 8 17 5t9 -13v-220q0 -8 -4 -12q-28 -22 -58 -39t-58 -33q-84 -42 -140 -42q-80 0 -172 34q-208 78 -268 78q-64 0 -132 -40q-22 -12 -47 -34 t-63 -52q-8 -6 -17 -3t-9 13z" />
<glyph unicode="&#xa1;" horiz-adv-x="452" d="M64 0v904h324v-904h-324zM64 968v322h324v-322h-324z" />
<glyph unicode="&#xa2;" d="M64 162v548h324v-388h644l-216 -322h-238l-30 -130h-328l26 130q-80 0 -131 42t-51 120zM64 774v162q0 96 78 136q60 30 172 30q46 0 86 -2t78 -4l28 130h332l-28 -130l222 -322h-968z" />
<glyph unicode="&#xa3;" horiz-adv-x="1226" d="M64 0q44 202 54 403t10 501h326l4 -98h252l-214 -322h-38q0 -86 -14 -162h718l-218 -322h-880zM128 968v162q0 64 48 112t114 48h396l216 -322h-774z" />
<glyph unicode="&#xa4;" horiz-adv-x="1314" d="M64 280l138 136q-24 56 -33 104t-9 98q0 56 9 101t33 101l-138 136l244 266l142 -148q28 12 51 21t46 13t49 6t62 2q34 0 60 -2t49 -6t46 -13t51 -21l142 148l244 -266l-138 -132q12 -28 20 -50t14 -45t8 -49t2 -62t-2 -61t-8 -47t-14 -44t-20 -50l138 -136l-244 -266 l-142 148q-28 -12 -51 -21t-46 -13t-49 -6t-60 -2q-36 0 -62 2t-49 6t-46 13t-51 21l-142 -148zM456 616q0 -42 15 -79t42 -64t64 -43t79 -16t79 16t64 44t43 65t16 79t-16 79t-43 66t-64 45t-79 16t-79 -17t-64 -45t-42 -66t-15 -80z" />
<glyph unicode="&#xa5;" horiz-adv-x="1464" d="M64 1290h384l284 -438l284 438h384l-294 -452h210v-160h-312l-84 -130h396v-160h-422v-388h-320v388h-422v160h390l-80 130h-310v160h206z" />
<glyph unicode="&#xa6;" horiz-adv-x="360" d="M64 0v658h232v-658h-232zM64 816v656h232v-656h-232z" />
<glyph unicode="&#xa7;" horiz-adv-x="1352" d="M64 -64h664l-548 580h442l90 -96h144l-150 160h-578v162q0 110 90 144q48 18 180 18l-90 96h442l448 -484q66 -70 78 -109t12 -149t-94 -144q-52 -18 -186 -18q100 -104 104 -110q48 -62 48 -212q0 -66 -48 -114t-114 -48h-718zM256 1064v162q0 66 48 114t114 48h654 l216 -324h-1032z" />
<glyph unicode="&#xa8;" horiz-adv-x="644" d="M64 1162v192h194v-192h-194zM388 1162v192h192v-192h-192z" />
<glyph unicode="&#xa9;" horiz-adv-x="1660" d="M64 678q0 318 223 543t543 225q318 0 542 -224t224 -544q0 -318 -223 -543t-543 -225t-543 225t-223 543zM264 678q0 -234 166 -400t400 -166t399 165t165 401q0 240 -162 402t-402 162q-236 0 -401 -165t-165 -399zM506 374v464h204v-360h442l-132 -204h-410 q-42 0 -73 29t-31 71zM506 880v100q0 44 30 72t74 28h410l132 -200h-646z" />
<glyph unicode="&#xaa;" horiz-adv-x="764" d="M64 878v254q0 44 32 75t74 31h134l142 -212h-170v-42h212v254h212v-466h-530q-42 0 -74 32t-32 74zM64 1280l142 212h388q44 0 75 -31t31 -75v-106h-636z" />
<glyph unicode="&#xab;" d="M64 484v322l452 478v-372l-254 -266l254 -272v-370zM580 484v322l452 478v-372l-254 -266l254 -272v-370z" />
<glyph unicode="&#xac;" horiz-adv-x="1208" d="M64 762l216 322h702q66 0 114 -48t48 -112v-162h-1080zM822 336v362h322v-362h-322z" />
<glyph unicode="&#xad;" horiz-adv-x="666" d="M64 484v322h538v-322h-538z" />
<glyph unicode="&#xae;" horiz-adv-x="1354" d="M64 870q0 258 178 436t436 178q256 0 434 -178t178 -436q0 -256 -178 -434t-434 -178t-435 177t-179 435zM226 870q0 -186 132 -318t320 -132q184 0 318 132t134 318q0 192 -130 322t-322 130t-322 -130t-130 -322zM420 548v452h160v-96h194v128h-354v162h434 q22 0 52 -30t30 -52v-290q0 -26 -27 -53t-55 -27l126 -194h-192l-126 194h-82v-194h-160z" />
<glyph unicode="&#xaf;" horiz-adv-x="1140" d="M0 1516v178h1140v-178h-1140z" />
<glyph unicode="&#xb0;" horiz-adv-x="752" d="M64 1144q0 130 91 221t221 91q128 0 220 -91t92 -221q0 -128 -92 -219t-220 -91q-130 0 -221 91t-91 219zM226 1144q0 -60 44 -104t106 -44t105 44t43 104q0 62 -43 106t-105 44t-106 -44t-44 -106z" />
<glyph unicode="&#xb1;" horiz-adv-x="1226" d="M64 0v322h388v162h-388v322h388v388h322v-388h388v-322h-388v-162h388v-322h-1098z" />
<glyph unicode="&#xb2;" horiz-adv-x="744" d="M64 770l338 506h218l-218 -326h278l-122 -180h-494zM64 1312l120 180h370q36 0 62 -26t26 -64v-90h-578z" />
<glyph unicode="&#xb3;" horiz-adv-x="740" d="M64 956h370l-186 196l120 128h246l-120 -128l128 -136q54 -66 54 -96v-54q0 -36 -27 -63t-65 -27h-400zM92 1314l122 180h364q38 0 64 -26t26 -64v-90h-576z" />
<glyph unicode="&#xb4;" horiz-adv-x="516" d="M64 1150l66 322h322l-194 -322h-194z" />
<glyph unicode="&#xb5;" d="M64 -226v1322h324v-774h322v774h322v-1096h-644v-226h-324z" />
<glyph unicode="&#xb6;" horiz-adv-x="1160" d="M64 548v582q0 60 50 110t112 50h484v-1290h-162v388q-24 0 -99 -5t-101 -5q-128 0 -194 30q-90 40 -90 140zM774 0v1290h322v-1290h-322z" />
<glyph unicode="&#xb7;" horiz-adv-x="452" d="M64 388v322h324v-322h-324z" />
<glyph unicode="&#xb8;" horiz-adv-x="438" d="M64 -464q48 38 77 82t34 88t-17 86t-76 78l32 130h192l-32 -130q56 -36 78 -79t17 -87t-34 -87t-77 -81h-194z" />
<glyph unicode="&#xb9;" horiz-adv-x="466" d="M64 1314l120 180h126q40 0 66 -27t26 -65v-88h-338zM196 770v506h206v-506h-206z" />
<glyph unicode="&#xba;" horiz-adv-x="744" d="M64 886v348h206v-246h206v246h204v-348q0 -42 -30 -73t-72 -31h-410q-42 0 -73 31t-31 73zM64 1274v104q0 40 31 71t73 31h410q42 0 72 -30t30 -72v-104h-616z" />
<glyph unicode="&#xbb;" d="M64 4v370l256 272l-256 266v372l452 -478v-322zM580 4v370l256 272l-256 266v372l452 -478v-322z" />
<glyph unicode="&#xbc;" horiz-adv-x="1530" d="M64 1256l148 222h126q48 0 80 -33t32 -79v-110h-386zM228 592v620h222v-620h-222zM270 0l658 1478h246l-660 -1478h-244zM862 318q0 76 120 254q82 116 164 234q54 82 146 82q72 0 123 -52t51 -122v-314h-222v148l-128 -192h350v-356h-222v134q-28 0 -56 -1t-58 -1 q-158 0 -218 52q-50 46 -50 134z" />
<glyph unicode="&#xbd;" horiz-adv-x="1622" d="M64 1256l148 222h126q48 0 80 -33t32 -79v-110h-386zM228 592v620h222v-620h-222zM288 0l658 1478h246l-660 -1478h-244zM940 0l342 630h216l-218 -404h278l-124 -226h-494zM940 674l122 226h368q38 0 64 -32t26 -80v-114h-580z" />
<glyph unicode="&#xbe;" horiz-adv-x="1704" d="M64 804h386l-196 248l124 168h260l-126 -168q66 -88 134 -172q56 -82 56 -120v-70q0 -44 -28 -78t-66 -34h-418zM94 1266l122 226h384q40 0 67 -33t27 -77v-116h-600zM470 0l658 1478h246l-660 -1478h-244zM1036 318q0 76 120 254q82 116 164 234q54 82 146 82 q72 0 123 -52t51 -122v-314h-222v148l-128 -192h350v-356h-222v134q-28 0 -56 -1t-58 -1q-158 0 -218 52q-50 46 -50 134z" />
<glyph unicode="&#xbf;" horiz-adv-x="1160" d="M64 162v516q0 98 86 136q58 26 174 26q30 0 54 -1t42 -1v66h322v-226q0 -78 -42 -116q-54 -48 -194 -48h-61t-57 2v-194h386v130h322v-290q0 -66 -46 -114t-114 -48h-710q-66 0 -114 48t-48 114zM420 968v322h322v-322h-322z" />
<glyph unicode="&#xc0;" horiz-adv-x="1292" d="M2 0l758 1170q78 120 214 120q102 0 177 -75t75 -177v-458h-324v216l-184 -280h508v-516h-324v194h-390l-126 -194h-384zM818 1706h342l68 -258h-204z" />
<glyph unicode="&#xc1;" horiz-adv-x="1290" d="M2 0l758 1170q78 120 214 120q102 0 177 -75t75 -177v-458h-324v216l-184 -280h508v-516h-324v194h-390l-126 -194h-384zM816 1448l68 258h342l-206 -258h-204z" />
<glyph unicode="&#xc2;" horiz-adv-x="1290" d="M2 0l758 1170q78 120 214 120q102 0 177 -75t75 -177v-458h-324v216l-184 -280h508v-516h-324v194h-390l-126 -194h-384zM656 1432l242 256h182l242 -256h-244l-90 126l-88 -126h-244z" />
<glyph unicode="&#xc3;" horiz-adv-x="1290" d="M2 0l758 1170q78 120 214 120q102 0 177 -75t75 -177v-458h-324v216l-182 -280h506v-516h-324v194h-390l-126 -194h-384zM594 1428v194q54 54 86 76q56 38 108 38q56 0 126 -30q158 -68 206 -68q46 0 100 32q34 20 84 64v-192q-44 -38 -86 -64q-56 -34 -98 -34 q-56 0 -126 30q-160 68 -208 68q-54 0 -106 -36q-32 -22 -86 -78z" />
<glyph unicode="&#xc4;" horiz-adv-x="1290" d="M2 0l758 1170q76 120 212 120q102 0 177 -75t75 -177v-458h-322v216l-184 -280h506v-516h-322v194h-392l-124 -194h-384zM724 1448v192h194v-192h-194zM1048 1448v192h192v-192h-192z" />
<glyph unicode="&#xc5;" horiz-adv-x="1292" d="M2 0h384l126 194h390v-194h326v516h-506l180 280v-216h326v458q0 108 -74 180t-180 72q-138 0 -214 -120zM844 1544q0 80 56 136t136 56t134 -56q58 -54 58 -136q0 -78 -58 -136q-54 -54 -134 -54t-136 54q-56 56 -56 136zM948 1544q0 -36 26 -61t62 -25t61 25t25 61 t-25 62t-61 26t-62 -26t-26 -62z" />
<glyph unicode="&#xc6;" horiz-adv-x="1978" d="M2 0l758 1170q76 120 214 120h744l216 -322h-710v-388h-322v216l-184 -280h506v-194h710l-216 -322h-816v194h-390l-126 -194h-384zM1290 516v322h450l-216 -322h-234z" />
<glyph unicode="&#xc7;" horiz-adv-x="1160" d="M64 162v742h324v-582h708l-216 -322h-268q-8 -30 -16 -65t-16 -65q56 -36 78 -79t17 -87t-34 -87t-77 -81h-194q48 38 77 82t34 88t-17 86t-76 78l32 130h-23h-32t-33 -1t-24 -1q-144 0 -194 43t-50 121zM64 968v162q0 32 13 61t35 51t51 35t63 13h654l216 -322h-1032z " />
<glyph unicode="&#xc8;" horiz-adv-x="1160" d="M64 0v1290h816l216 -322h-708v-646h708l-216 -322h-816zM312 1706h342l68 -258h-204zM452 484v322h452l-216 -322h-236z" />
<glyph unicode="&#xc9;" horiz-adv-x="1160" d="M64 0v1290h816l216 -322h-708v-646h708l-216 -322h-816zM386 1448l68 258h342l-206 -258h-204zM452 484v322h452l-216 -322h-236z" />
<glyph unicode="&#xca;" horiz-adv-x="1160" d="M64 0v1290h816l216 -322h-708v-646h708l-216 -322h-816zM220 1432l242 256h182l242 -256h-244l-90 126l-88 -126h-244zM452 484v322h452l-216 -322h-236z" />
<glyph unicode="&#xcb;" horiz-adv-x="1160" d="M64 0v1290h816l216 -322h-708v-646h708l-216 -322h-816zM304 1448v192h194v-192h-194zM452 484v322h452l-216 -322h-236zM628 1448v192h192v-192h-192z" />
<glyph unicode="&#xcc;" horiz-adv-x="538" d="M64 1706h342l68 -258h-204zM110 0v1290h324v-1290h-324z" />
<glyph unicode="&#xcd;" horiz-adv-x="538" d="M64 1448l68 258h342l-206 -258h-204zM108 0v1290h324v-1290h-324z" />
<glyph unicode="&#xce;" horiz-adv-x="794" d="M64 1432l242 256h182l242 -256h-244l-90 126l-88 -126h-244zM234 0v1290h324v-1290h-324z" />
<glyph unicode="&#xcf;" horiz-adv-x="644" d="M64 1448v192h194v-192h-194zM160 0v1290h324v-1290h-324zM160 0v1290h324v-1290h-324zM388 1448v192h192v-192h-192z" />
<glyph unicode="&#xd0;" horiz-adv-x="1440" d="M64 452v322h134v130h322v-130h96l216 -322h-312v-130h484l-420 646h-386v322h432q136 0 212 -120q90 -130 182 -258q142 -202 234 -360q118 -202 118 -284q0 -108 -80 -188t-188 -80h-910v452h-134z" />
<glyph unicode="&#xd1;" horiz-adv-x="1354" d="M64 0v1038q0 104 74 178t178 74q136 0 212 -120l438 -676v796h324v-1038q0 -104 -74 -178t-178 -74q-136 0 -214 120l-438 676v-796h-322zM316 1430v194q58 56 88 76q56 38 108 38q60 0 166 -49t164 -49q46 0 100 32q34 20 84 66v-194q-44 -40 -84 -64q-56 -34 -100 -34 q-56 0 -126 30q-158 68 -206 68q-40 0 -85 -23t-109 -91z" />
<glyph unicode="&#xd2;" horiz-adv-x="1160" d="M64 162v742h324v-582h386v582h322v-742q0 -66 -46 -114t-114 -48h-710q-66 0 -114 48t-48 114zM64 968v162q0 64 48 112t114 48h710q66 0 113 -47t47 -113v-162h-1032zM358 1706h342l68 -258h-204z" />
<glyph unicode="&#xd3;" horiz-adv-x="1160" d="M64 162v742h324v-582h386v582h322v-742q0 -66 -46 -114t-114 -48h-710q-66 0 -114 48t-48 114zM64 968v162q0 64 48 112t114 48h710q66 0 113 -47t47 -113v-162h-1032zM358 1448l68 258h342l-206 -258h-204z" />
<glyph unicode="&#xd4;" horiz-adv-x="1160" d="M64 162v742h324v-582h386v582h322v-742q0 -66 -46 -114t-114 -48h-710q-66 0 -114 48t-48 114zM64 968v162q0 64 48 112t114 48h710q66 0 113 -47t47 -113v-162h-1032zM248 1428l242 256h182l242 -256h-244l-90 126l-88 -126h-244z" />
<glyph unicode="&#xd5;" horiz-adv-x="1160" d="M64 162v742h324v-582h386v582h322v-742q0 -66 -46 -114t-114 -48h-710q-66 0 -114 48t-48 114zM64 968v162q0 64 48 112t114 48h710q66 0 113 -47t47 -113v-162h-1032zM226 1428v194q54 54 86 76q56 38 108 38q56 0 126 -30q158 -68 206 -68q46 0 100 32q34 20 84 64 v-192q-44 -38 -86 -64q-56 -34 -98 -34q-56 0 -126 30q-160 68 -208 68q-54 0 -106 -36q-32 -22 -86 -78z" />
<glyph unicode="&#xd6;" horiz-adv-x="1160" d="M64 162v742h324v-582h386v582h322v-742q0 -66 -46 -114t-114 -48h-710q-66 0 -114 48t-48 114zM64 968v162q0 64 48 112t114 48h710q66 0 113 -47t47 -113v-162h-1032zM322 1448v192h194v-192h-194zM646 1448v192h192v-192h-192z" />
<glyph unicode="&#xd7;" horiz-adv-x="1134" d="M64 370l274 276l-274 274l228 228l274 -274l276 274l228 -228l-274 -274l274 -276l-228 -228l-276 274l-274 -274z" />
<glyph unicode="&#xd8;" horiz-adv-x="1160" d="M64 162v742h324v-582h386v582h322v-742q0 -66 -46 -114t-114 -48h-328l-42 -196h-330l40 196h-50q-66 0 -114 48t-48 114zM64 968v162q0 64 48 112t114 48h326l42 194h332l-42 -194h52q66 0 113 -47t47 -113v-162h-1032z" />
<glyph unicode="&#xd9;" horiz-adv-x="1160" d="M64 162v1128h324v-968h386v968h322v-1290h-870q-66 0 -114 48t-48 114zM366 1706h342l68 -258h-204z" />
<glyph unicode="&#xda;" horiz-adv-x="1160" d="M64 162v1128h324v-968h386v968h322v-1290h-870q-66 0 -114 48t-48 114zM414 1448l68 258h342l-206 -258h-204z" />
<glyph unicode="&#xdb;" horiz-adv-x="1160" d="M64 162v1128h324v-968h386v968h322v-1290h-870q-66 0 -114 48t-48 114zM214 1428l242 256h182l242 -256h-244l-90 126l-88 -126h-244z" />
<glyph unicode="&#xdc;" horiz-adv-x="1160" d="M64 162v1128h324v-968h386v968h322v-1290h-870q-66 0 -114 48t-48 114zM304 1448v192h194v-192h-194zM628 1448v192h192v-192h-192z" />
<glyph unicode="&#xdd;" horiz-adv-x="1340" d="M2 1290h384l284 -438l284 438h384l-506 -784v-506h-322v506zM480 1448l68 258h342l-206 -258h-204z" />
<glyph unicode="&#xde;" horiz-adv-x="1264" d="M64 0v754h324v-288h490v288h322v-448q0 -66 -48 -114t-114 -48h-650v-144h-324zM64 818v472h324v-150h650q66 0 114 -46t48 -114v-162h-1136z" />
<glyph unicode="&#xdf;" horiz-adv-x="1306" d="M64 -226v1130h324v-66h322v130h-646v162q0 64 48 112t114 48h644q102 0 146 -102q34 -80 34 -226q0 -76 -7 -154t-11 -138q64 -94 130 -186q80 -126 80 -216q0 -110 -79 -189t-189 -79h-586v-226h-324zM388 322h482l-124 194h-358v-194z" />
<glyph unicode="&#xe0;" d="M64 162v386q0 66 48 114t114 48h204l216 -322h-258v-66h322v388h322v-710h-806q-66 0 -114 48t-48 114zM64 774l216 322h590q68 0 115 -47t47 -113v-162h-968zM430 1506h342l68 -258h-204z" />
<glyph unicode="&#xe1;" d="M64 162v386q0 66 48 114t114 48h204l216 -322h-258v-66h322v388h322v-710h-806q-66 0 -114 48t-48 114zM64 774l216 322h590q68 0 115 -47t47 -113v-162h-968zM430 1246l68 258h342l-206 -258h-204z" />
<glyph unicode="&#xe2;" d="M64 162v386q0 66 48 114t114 48h204l216 -322h-258v-66h322v388h322v-710h-806q-66 0 -114 48t-48 114zM64 774l216 322h590q68 0 115 -47t47 -113v-162h-968zM216 1250l242 256h182l242 -256h-244l-88 126l-90 -126h-244z" />
<glyph unicode="&#xe3;" d="M64 162v386q0 66 48 114t114 48h204l216 -322h-258v-66h322v388h322v-710h-806q-66 0 -114 48t-48 114zM64 774l216 322h590q68 0 115 -47t47 -113v-162h-968zM258 1232v194q54 54 86 76q56 38 108 38q56 0 126 -30q158 -68 206 -68q46 0 100 32q34 20 84 64v-192 q-44 -38 -86 -64q-56 -34 -98 -34q-56 0 -126 30q-160 68 -208 68q-54 0 -106 -36q-32 -22 -86 -78z" />
<glyph unicode="&#xe4;" d="M64 162v386q0 66 48 114t114 48h204l216 -322h-258v-66h322v388h322v-710h-806q-66 0 -114 48t-48 114zM64 774l216 322h590q68 0 115 -47t47 -113v-162h-968zM344 1248v192h194v-192h-194zM668 1248v192h192v-192h-192z" />
<glyph unicode="&#xe5;" d="M64 162v386q0 66 48 114t114 48h204l216 -322h-258v-66h322v388h322v-710h-806q-66 0 -114 48t-48 114zM64 774l216 322h590q68 0 115 -47t47 -113v-162h-968zM356 1364q0 80 56 136t136 56t134 -56q58 -54 58 -136q0 -78 -58 -136q-54 -54 -134 -54t-136 54 q-56 56 -56 136zM460 1364q0 -36 26 -61t62 -25t61 25t25 61t-25 62t-61 26t-62 -26t-26 -62z" />
<glyph unicode="&#xe6;" horiz-adv-x="1806" d="M64 162v386q0 66 48 114t114 48h204l216 -322h-258v-66h322v388h322v-388h710l-216 -322h-1300q-66 0 -114 48t-48 114zM64 774l216 322h1236q66 0 114 -46t48 -114v-162h-1614zM1096 710h582v-162q0 -64 -48 -112t-114 -48h-204z" />
<glyph unicode="&#xe7;" d="M64 162v548h324v-388h644l-216 -322h-224l-34 -128q50 -30 74 -77t22 -96t-30 -93t-82 -70h-194q54 30 82 74t30 91t-21 92t-73 79l34 128h-174q-66 0 -114 48t-48 114zM64 774v162q0 32 13 61t35 51t51 35t63 13h590l216 -322h-968z" />
<glyph unicode="&#xe8;" horiz-adv-x="1162" d="M64 162v774q0 64 48 112t114 48h646q66 0 113 -47t47 -113v-162h-644v-452h710l-216 -322h-656q-66 0 -114 48t-48 114zM352 1506h342l68 -258h-204zM452 710h580v-162q0 -66 -47 -113t-113 -47h-204z" />
<glyph unicode="&#xe9;" horiz-adv-x="1162" d="M64 162v774q0 64 48 112t114 48h646q66 0 113 -47t47 -113v-162h-644v-452h710l-216 -322h-656q-66 0 -114 48t-48 114zM350 1248l68 258h342l-206 -258h-204zM452 710h580v-162q0 -66 -47 -113t-113 -47h-204z" />
<glyph unicode="&#xea;" horiz-adv-x="1162" d="M64 162v774q0 64 48 112t114 48h646q66 0 113 -47t47 -113v-162h-644v-452h710l-216 -322h-656q-66 0 -114 48t-48 114zM218 1190l242 256h182l242 -256h-244l-88 126l-90 -126h-244zM452 710h580v-162q0 -66 -47 -113t-113 -47h-204z" />
<glyph unicode="&#xeb;" horiz-adv-x="1162" d="M64 162v774q0 64 48 112t114 48h646q66 0 113 -47t47 -113v-162h-644v-452h710l-216 -322h-656q-66 0 -114 48t-48 114zM312 1248v192h194v-192h-194zM452 710h580v-162q0 -66 -47 -113t-113 -47h-204zM636 1248v192h192v-192h-192z" />
<glyph unicode="&#xec;" horiz-adv-x="538" d="M64 1506h342l68 -258h-204zM104 0v1096h324v-1096h-324z" />
<glyph unicode="&#xed;" horiz-adv-x="538" d="M64 1248l68 258h342l-206 -258h-204zM110 0v1096h324v-1096h-324z" />
<glyph unicode="&#xee;" horiz-adv-x="794" d="M64 1250l242 256h182l242 -256h-244l-88 126l-90 -126h-244zM236 0v1096h324v-1096h-324z" />
<glyph unicode="&#xef;" horiz-adv-x="644" d="M64 1248v192h194v-192h-194zM160 0v1096h324v-1096h-324zM388 1248v192h192v-192h-192z" />
<glyph unicode="&#xf0;" horiz-adv-x="1098" d="M64 162v270h324v-110h322v110h322v-432h-806q-66 0 -114 48t-48 114zM64 496v162q0 32 13 61t35 51t51 35t63 13h484v148h-128l-54 -94h-304l56 94h-214l216 322h218l56 94h304l-60 -94q108 0 171 -52t63 -136v-604h-970z" />
<glyph unicode="&#xf1;" d="M64 0v710h324v-710h-324zM64 774v322h806q66 0 114 -46t48 -114v-936h-322v774h-646zM192 1232v194q54 54 86 76q56 38 108 38q56 0 126 -30q158 -68 206 -68q46 0 100 32q34 20 84 64v-192q-44 -38 -86 -64q-56 -34 -98 -34q-56 0 -126 30q-160 68 -208 68 q-54 0 -106 -36q-32 -22 -86 -78z" />
<glyph unicode="&#xf2;" d="M64 162v548h324v-388h322v388h322v-548q0 -66 -48 -114t-114 -48h-644q-66 0 -114 48t-48 114zM64 774v162q0 64 48 112t114 48h644q68 0 115 -47t47 -113v-162h-968zM308 1506h342l68 -258h-204z" />
<glyph unicode="&#xf3;" d="M64 162v548h322v-388h322v388h324v-548q0 -66 -48 -114t-114 -48h-644q-66 0 -114 48t-48 114zM64 774v162q0 66 47 113t115 47h644q66 0 114 -48t48 -112v-162h-968zM378 1248l68 258h342l-206 -258h-204z" />
<glyph unicode="&#xf4;" d="M64 162v548h324v-388h322v388h322v-548q0 -66 -48 -114t-114 -48h-644q-66 0 -114 48t-48 114zM64 774v162q0 64 48 112t114 48h644q68 0 115 -47t47 -113v-162h-968zM216 1250l242 256h182l242 -256h-244l-88 126l-90 -126h-244z" />
<glyph unicode="&#xf5;" d="M64 162v548h324v-388h322v388h322v-548q0 -66 -48 -114t-114 -48h-644q-66 0 -114 48t-48 114zM64 774v162q0 64 48 112t114 48h644q68 0 115 -47t47 -113v-162h-968zM192 1232v194q54 54 86 76q56 38 108 38q56 0 126 -30q158 -68 206 -68q46 0 100 32q34 20 84 64v-192 q-44 -38 -86 -64q-56 -34 -98 -34q-56 0 -126 30q-160 68 -208 68q-54 0 -106 -36q-32 -22 -86 -78z" />
<glyph unicode="&#xf6;" d="M64 162v548h324v-388h322v388h322v-548q0 -66 -48 -114t-114 -48h-644q-66 0 -114 48t-48 114zM64 774v162q0 64 48 112t114 48h644q68 0 115 -47t47 -113v-162h-968zM290 1248v192h194v-192h-194zM614 1248v192h192v-192h-192z" />
<glyph unicode="&#xf7;" horiz-adv-x="1226" d="M64 484v322h1098v-322h-1098zM494 146v242h242v-242h-242zM494 904v242h242v-242h-242z" />
<glyph unicode="&#xf8;" d="M64 162v548h324v-388h322v388h322v-548q0 -66 -48 -114t-114 -48h-290l-30 -130h-330l28 130h-22q-66 0 -114 48t-48 114zM64 774v162q0 64 48 112t114 48h254l26 130h332l-26 -130h58q68 0 115 -47t47 -113v-162h-968z" />
<glyph unicode="&#xf9;" d="M64 162v934h324v-774h322v774h322v-1096h-806q-66 0 -114 48t-48 114zM322 1506h342l68 -258h-204z" />
<glyph unicode="&#xfa;" d="M64 162v934h324v-774h322v774h322v-1096h-806q-66 0 -114 48t-48 114zM342 1248l68 258h342l-206 -258h-204z" />
<glyph unicode="&#xfb;" d="M64 162v934h324v-774h322v774h322v-1096h-806q-66 0 -114 48t-48 114zM216 1250l242 256h182l242 -256h-244l-88 126l-90 -126h-244z" />
<glyph unicode="&#xfc;" d="M64 162v934h324v-774h322v774h322v-1096h-806q-66 0 -114 48t-48 114zM284 1248v192h194v-192h-194zM608 1248v192h192v-192h-192z" />
<glyph unicode="&#xfd;" horiz-adv-x="1044" d="M2 1096h336l178 -622l192 622h334l-468 -1548h-340l146 462q-82 54 -106 144zM316 1246l68 258h342l-206 -258h-204z" />
<glyph unicode="&#xfe;" d="M64 -386v1096h324v-388h322v388h322v-548q0 -66 -48 -114t-114 -48h-482v-386h-324zM64 774v732h324v-410h482q66 0 114 -46t48 -114v-162h-968z" />
<glyph unicode="&#xff;" horiz-adv-x="1044" d="M2 1096h336l178 -622l192 622h334l-456 -1484h-332l120 400q-74 54 -100 142zM276 1248v192h194v-192h-194zM600 1248v192h192v-192h-192z" />
<glyph unicode="&#x152;" horiz-adv-x="1870" d="M64 162v742h324v-582h386v582h322v-582h710l-216 -322h-1364q-44 0 -103 57t-59 105zM64 968v162q0 64 48 112t114 48h1364l216 -322h-1742zM1162 484v322h450l-216 -322h-234z" />
<glyph unicode="&#x153;" horiz-adv-x="1806" d="M64 162v548h324v-388h322v388h322v-388h710l-216 -322h-1300q-66 0 -114 48t-48 114zM64 774v162q0 64 48 112t114 48h1290q66 0 114 -46t48 -114v-162h-1614zM1096 710h582v-162q0 -68 -46 -114t-116 -46h-204z" />
<glyph unicode="&#x178;" horiz-adv-x="1340" d="M2 1290h384l284 -438l284 438h384l-506 -784v-506h-322v506zM412 1448v192h194v-192h-194zM736 1448v192h192v-192h-192z" />
<glyph unicode="&#x2c6;" horiz-adv-x="794" d="M64 1432l242 256h182l242 -256h-244l-90 126l-88 -126h-244z" />
<glyph unicode="&#x2dc;" horiz-adv-x="838" d="M64 1430v194q58 56 88 76q56 38 108 38q60 0 166 -49t164 -49q46 0 100 32q34 20 84 66v-194q-44 -40 -84 -64q-56 -34 -100 -34q-56 0 -126 30q-158 68 -206 68q-40 0 -85 -23t-109 -91z" />
<glyph unicode="&#x2000;" horiz-adv-x="869" />
<glyph unicode="&#x2001;" horiz-adv-x="1738" />
<glyph unicode="&#x2002;" horiz-adv-x="869" />
<glyph unicode="&#x2003;" horiz-adv-x="1738" />
<glyph unicode="&#x2004;" horiz-adv-x="579" />
<glyph unicode="&#x2005;" horiz-adv-x="434" />
<glyph unicode="&#x2006;" horiz-adv-x="289" />
<glyph unicode="&#x2007;" horiz-adv-x="289" />
<glyph unicode="&#x2008;" horiz-adv-x="217" />
<glyph unicode="&#x2009;" horiz-adv-x="347" />
<glyph unicode="&#x200a;" horiz-adv-x="96" />
<glyph unicode="&#x2010;" horiz-adv-x="1064" d="M64 484v322h936v-322h-936z" />
<glyph unicode="&#x2011;" horiz-adv-x="1064" d="M64 484v322h936v-322h-936z" />
<glyph unicode="&#x2012;" horiz-adv-x="1064" d="M64 484v322h936v-322h-936z" />
<glyph unicode="&#x2013;" horiz-adv-x="1354" d="M64 484v322h1226v-322h-1226z" />
<glyph unicode="&#x2014;" horiz-adv-x="1548" d="M0 484v322h1548v-322h-1548z" />
<glyph unicode="&#x2018;" horiz-adv-x="452" d="M64 1038v324l324 322v-64l-66 -258h66v-324h-324z" />
<glyph unicode="&#x2019;" horiz-adv-x="452" d="M64 1040v64l66 258h-66v322h324v-322z" />
<glyph unicode="&#x201a;" horiz-adv-x="452" d="M64 0v322h324v-322l-324 -322v64l66 258h-66z" />
<glyph unicode="&#x201c;" horiz-adv-x="838" d="M64 1038v324l324 322v-64l-66 -258h66v-324h-324zM452 1038v324l322 322v-64l-64 -258h64v-324h-322z" />
<glyph unicode="&#x201d;" horiz-adv-x="838" d="M64 1040v64l66 258h-66v322h324v-322zM452 1040v64l64 258h-64v322h322v-322z" />
<glyph unicode="&#x201e;" horiz-adv-x="838" d="M64 0v322h324v-322l-324 -322v64l66 258h-66zM452 0v322h322v-322l-322 -322v64l64 258h-64z" />
<glyph unicode="&#x2022;" horiz-adv-x="838" d="M64 580q0 150 103 253t251 103q150 0 253 -103t103 -253t-102 -252t-254 -102q-150 0 -252 102t-102 252z" />
<glyph unicode="&#x2026;" horiz-adv-x="1290" d="M64 2v322h324v-322h-324zM484 2v322h322v-322h-322zM904 2v322h322v-322h-322z" />
<glyph unicode="&#x202f;" horiz-adv-x="347" />
<glyph unicode="&#x2039;" horiz-adv-x="580" d="M64 484v322l452 478v-372l-254 -266l254 -272v-370z" />
<glyph unicode="&#x203a;" horiz-adv-x="580" d="M64 4v370l256 272l-256 266v372l452 -478v-322z" />
<glyph unicode="&#x205f;" horiz-adv-x="434" />
<glyph unicode="&#x20ac;" horiz-adv-x="1240" d="M64 416v196h130v64h-130v196h130v32h324v-32h490l-134 -196h-356v-64h310l-134 -196h-176v-94h708l-216 -322h-654q-66 0 -114 48t-48 114v254h-130zM194 968v162q0 64 48 112t114 48h654l216 -322h-1032z" />
<glyph unicode="&#x2122;" horiz-adv-x="1484" d="M64 1130v160h324v-644h-162v484h-162zM420 1130v160h226l-108 -160h-118zM646 646v518q0 50 36 88t88 38q90 0 186 -162q38 -68 76 -134l104 180q78 116 158 116q56 0 91 -35t35 -91v-518h-162v400l-88 -156q-70 -106 -138 -106q-78 0 -162 146l-64 116v-400h-160z" />
<glyph unicode="&#x25fc;" horiz-adv-x="1100" d="M0 0v1100h1100v-1100h-1100z" />
</font>
</defs>
</svg>
