<?xml version="1.0" encoding="iso-8859-1"?>
<!-- Generator: Adobe Illustrator 16.0.0, SVG Export Plug-In . SVG Version: 6.00 Build 0)  -->
<!DOCTYPE svg PUBLIC "-//W3C//DTD SVG 1.1//EN" "http://www.w3.org/Graphics/SVG/1.1/DTD/svg11.dtd">
<svg version="1.1" id="Capa_1" xmlns="http://www.w3.org/2000/svg" xmlns:xlink="http://www.w3.org/1999/xlink" x="0px" y="0px"
	 width="490.991px" height="490.991px" viewBox="0 0 490.991 490.991" style="enable-background:new 0 0 490.991 490.991;"
	 xml:space="preserve">
<g>
	<path d="M295.024,83.051H193.716C205.591,32.46,223.87,0,244.376,0C264.881,0,283.165,32.455,295.024,83.051z M231.585,371.361
		c0,0-42.987,56.08,8.405,119.63c0,0-23.241-52.923,3.044-71.146c0,0,22.08-7.364,23.835,15.071c0,0,18.221-35.537,0-63.575
		L231.585,371.361z M347.591,276.325c-10.648-18.256-23.54-33.473-36.879-44.556c0.808-11.379,1.246-23.135,1.246-35.161
		c0-12.88-0.537-25.387-1.465-37.502c-2.77,2.673-6.523,4.32-10.684,4.32c-8.521,0-15.421-6.903-15.421-15.42v-16.822
		c0-8.517,6.9-15.42,15.421-15.42c1.904,0,3.731,0.359,5.417,0.996c-1.574-8.84-3.387-17.324-5.439-25.292H191.421
		c-7.65,29.713-12.17,65.957-12.17,105.139c0,11.976,0.435,23.664,1.237,35c-13.419,11.094-26.386,26.375-37.09,44.717
		c-28.486,48.81-30.171,100.881-3.754,116.29l52.162-89.391c6.646,25.227,17.544,45.583,28.617,58.792h50.387
		c11.029-13.171,21.881-33.422,28.529-58.54l52.018,89.139C377.758,377.206,376.081,325.135,347.591,276.325z"/>
</g>
<g>
</g>
<g>
</g>
<g>
</g>
<g>
</g>
<g>
</g>
<g>
</g>
<g>
</g>
<g>
</g>
<g>
</g>
<g>
</g>
<g>
</g>
<g>
</g>
<g>
</g>
<g>
</g>
<g>
</g>
</svg>
